<?xml version="1.0" encoding="UTF-8" standalone="no"?>
<!-- Created with Inkscape (http://www.inkscape.org/) -->

<svg
   width="512mm"
   height="512mm"
   viewBox="0 0 512 512"
   version="1.1"
   id="svg1"
   xml:space="preserve"
   inkscape:version="1.4.2 (f4327f4, 2025-05-13)"
   sodipodi:docname="LogoM-light.svg"
   inkscape:export-filename="LogoM.svg"
   inkscape:export-xdpi="96"
   inkscape:export-ydpi="96"
   xmlns:inkscape="http://www.inkscape.org/namespaces/inkscape"
   xmlns:sodipodi="http://sodipodi.sourceforge.net/DTD/sodipodi-0.dtd"
   xmlns="http://www.w3.org/2000/svg"
   xmlns:svg="http://www.w3.org/2000/svg"><sodipodi:namedview
     id="namedview1"
     pagecolor="#ffffff"
     bordercolor="#000000"
     borderopacity="0.25"
     inkscape:showpageshadow="2"
     inkscape:pageopacity="0.0"
     inkscape:pagecheckerboard="0"
     inkscape:deskcolor="#d1d1d1"
     inkscape:document-units="mm"
     inkscape:zoom="0.43924966"
     inkscape:cx="851.452"
     inkscape:cy="966.42078"
     inkscape:window-width="1920"
     inkscape:window-height="991"
     inkscape:window-x="-9"
     inkscape:window-y="-9"
     inkscape:window-maximized="1"
     inkscape:current-layer="g5"
     showgrid="false"><inkscape:page
       x="0"
       y="0"
       width="512"
       height="512"
       id="page2"
       margin="0"
       bleed="0" /></sodipodi:namedview><defs
     id="defs1"><inkscape:perspective
       sodipodi:type="inkscape:persp3d"
       inkscape:vp_x="0 : 256 : 1"
       inkscape:vp_y="0 : 1000 : 0"
       inkscape:vp_z="512 : 256 : 1"
       inkscape:persp3d-origin="256 : 170.66667 : 1"
       id="perspective5" /><rect
       x="-569.1524"
       y="621.51443"
       width="380.19381"
       height="352.87449"
       id="rect5" /><rect
       x="-443.93888"
       y="644.28052"
       width="361.98093"
       height="109.27726"
       id="rect4" /><rect
       x="-482.64124"
       y="330.10839"
       width="209.44808"
       height="327.83178"
       id="rect3" /><rect
       x="93.340994"
       y="635.17408"
       width="220.83113"
       height="280.02298"
       id="rect2" /><rect
       x="79.681337"
       y="676.15306"
       width="152.53284"
       height="218.55452"
       id="rect1" /><linearGradient
       id="swatch93"
       inkscape:swatch="solid"><stop
         style="stop-color:#c86035;stop-opacity:0.41504177;"
         offset="0"
         id="stop94" /></linearGradient></defs><g
     inkscape:label="Ebene 1"
     inkscape:groupmode="layer"
     id="layer1"><g
       id="g3"><g
         id="g2"
         transform="translate(-7.4640846e-5,13.286284)"><g
           id="g5"
           transform="matrix(1.4776619,0,0,1.4776619,-135.21711,-30.020099)"><g
             id="g6"><g
               id="g1"
               transform="matrix(1.7580559,0,0,1.7580559,-6.1217886,-37.08788)"
               style="fill:#000000;fill-opacity:1;stroke:#ffffff;stroke-opacity:1"><path
                 d="m 188.81999,184.53125 c -1.36042,0 -2.58783,19.75405 -1.41696,22.80533 2.00892,5.23511 3.27024,0.73081 3.0272,-10.81071 -0.20939,-9.94637 -0.48425,-11.99462 -1.61024,-11.99462 z"
                 style="opacity:0.93;mix-blend-mode:color;fill:#000000;fill-opacity:1;stroke:#000000;stroke-width:1;stroke-opacity:1"
                 id="path110" /><path
                 d="m 236.09928,184.43615 c -3.90286,0.1454 -8.12175,0.91121 -9.38547,2.1761 -5.87004,5.87537 -0.73491,12.04526 10.02523,12.04526 7.60427,0 9.7536,1.0827 8.70541,4.38526 -0.67938,2.14051 -3.0073,2.82861 -9.62577,2.84479 -5.5481,0.0136 -6.76641,0.57609 -5.23741,2.41845 1.30251,1.56942 11.28896,1.5996 14.36553,0.0434 9.23418,-4.67073 4.14893,-13.31288 -7.83363,-13.31288 -14.08529,0 -13.126,-6.85418 1.04439,-7.46208 4.12106,-0.17689 5.4317,-0.56034 5.4317,-1.5906 0,-1.21781 -3.5871,-1.69311 -7.48998,-1.54771 z"
                 style="opacity:0.93;mix-blend-mode:color;fill:#000000;fill-opacity:1;stroke:#000000;stroke-width:1;stroke-opacity:1"
                 id="path109" /><path
                 d="m 112.08308,184.40907 c -0.44786,-0.0415 -0.99523,0.29552 -1.65779,0.95808 -0.67222,0.67219 -2.16208,0.6531 -5.01002,-0.0641 -15.136727,-3.81148 -23.375887,15.4979 -9.535857,22.34851 4.716467,2.33458 5.313397,2.37192 9.567897,0.59427 v 10e-4 c 2.91668,-1.21864 3.44664,-1.21981 4.7811,-0.0134 2.85047,2.57963 3.64887,-0.007 3.64887,-11.8277 0,-8.34381 -0.45064,-11.87216 -1.7942,-11.99668 z m -11.02828,3.55637 c 1.81494,-0.0558 3.62503,0.68227 5.44464,2.2133 7.25458,6.10435 1.75895,16.97843 -7.672927,15.18254 -6.37816,-1.21444 -8.36,-10.27809 -3.2463,-14.84716 1.83942,-1.64353 3.65966,-2.49289 5.474587,-2.54868 z"
                 style="opacity:0.93;mix-blend-mode:color;fill:#000000;fill-opacity:1;stroke:#000000;stroke-width:1;stroke-opacity:1"
                 id="path107" /><path
                 d="m 219.02489,184.40907 c -0.44786,-0.0415 -0.99523,0.29552 -1.65779,0.95808 -0.67222,0.67219 -2.16208,0.6531 -5.01002,-0.0641 -15.13672,-3.81148 -23.37588,15.4979 -9.53585,22.34851 4.71646,2.33458 5.31339,2.37192 9.56789,0.59427 v 10e-4 c 2.91668,-1.21864 3.44664,-1.21981 4.7811,-0.0134 2.85047,2.57963 3.64887,-0.007 3.64887,-11.8277 0,-8.34381 -0.45064,-11.87216 -1.7942,-11.99668 z m -11.02828,3.55637 c 1.81494,-0.0558 3.62503,0.68227 5.44464,2.2133 7.25458,6.10435 1.75895,16.97843 -7.67292,15.18254 -6.37816,-1.21444 -8.36,-10.27809 -3.2463,-14.84716 1.83942,-1.64353 3.65966,-2.49289 5.47458,-2.54868 z"
                 style="opacity:0.93;mix-blend-mode:color;fill:#000000;fill-opacity:1;stroke:#000000;stroke-width:1;stroke-opacity:1"
                 id="path107-9" /><path
                 d="m 140.59813,175.25609 c -0.13118,0.002 -0.27672,0.0189 -0.43717,0.0496 -1.74906,0.33462 -2.73651,14.2981 -1.5751,22.27358 1.09933,7.54928 12.70097,15.83586 13.85341,9.895 0.2005,-1.03413 -0.78878,-1.74761 -3.39721,-2.44999 -4.24756,-1.14375 -6.05222,-3.44257 -6.90706,-8.79842 -1.12359,-7.03962 -0.21107,-8.41654 5.57846,-8.41654 7.00185,0 6.93693,-3.0099 -0.0744,-3.45302 -5.12712,-0.32402 -5.86037,-1.05904 -5.87974,-5.89266 -0.009,-2.45387 -0.24286,-3.2191 -1.16118,-3.20756 z"
                 style="opacity:0.93;mix-blend-mode:color;fill:#000000;fill-opacity:1;stroke:#000000;stroke-width:1;stroke-opacity:1"
                 id="path103" /><path
                 d="m 189.50217,170.45708 c -4.02593,0 -6.7445,3.43923 -4.49553,5.68817 2.88013,2.88016 7.9676,1.5554 7.9676,-2.07443 0,-1.98809 -1.56213,-3.61374 -3.47207,-3.61374 z"
                 style="opacity:0.93;mix-blend-mode:color;fill:#000000;fill-opacity:1;stroke:#000000;stroke-width:2.66198;stroke-opacity:1"
                 id="path102" /><path
                 d="m 60.39528,175.38922 c -1.884975,-0.07 -1.935799,4.53838 -1.935799,16.61604 0,16.86046 0.246014,18.57301 2.406571,16.77985 0.905541,-0.75153 1.214913,-4.0918 1.214913,-13.11857 v -5.2e-4 c 0,-14.73624 -0.300728,-14.62971 10.620025,-3.75429 7.892268,7.85944 8.390702,8.57898 8.390702,12.11037 0,3.54248 1.718732,6.48228 3.025655,5.17539 1.226687,-1.22671 0.677386,-33.78915 -0.569995,-33.78915 -0.641093,0 -3.171875,2.03684 -5.623944,4.52634 -5.506021,5.59009 -6.150204,5.59142 -11.768792,0.0305 -2.836784,-2.80792 -4.628352,-4.53394 -5.759336,-4.57594 z m 19.392618,8.20932 c 0.964339,0.0591 1.303794,1.61682 1.303794,4.93613 0,5.50999 -0.558951,5.97565 -3.463352,2.88406 -2.403008,-2.55786 -2.493046,-4.39186 -0.312643,-6.36498 1.090217,-0.98663 1.89359,-1.49067 2.472201,-1.45521 z"
                 style="opacity:0.93;mix-blend-mode:color;fill:#000000;fill-opacity:1;stroke:#000000;stroke-width:1;stroke-opacity:1"
                 id="path101" /><path
                 d="m 159.61972,175.15106 c -0.52086,-0.0823 -1.09337,0.28072 -1.65675,1.17047 -1.15649,1.82641 -1.03375,29.51396 0.14056,31.70814 1.94458,3.6335 3.55792,0.30115 3.55792,-7.3489 0,-10.52423 4.62041,-14.87333 12.05353,-11.34608 4.06761,1.93022 5.14697,4.60098 5.14697,12.73566 0,6.14348 0.16149,6.74688 1.81023,6.74688 1.6645,0 1.81023,-0.60266 1.80712,-7.4688 -0.007,-13.23131 -6.1072,-18.57791 -17.87591,-15.66519 -2.94213,0.72816 -2.94194,0.72808 -2.94194,-4.3925 0,-3.62278 -0.89587,-5.95865 -2.04173,-6.13968 z"
                 style="opacity:0.93;mix-blend-mode:color;fill:#000000;fill-opacity:1;stroke:#000000;stroke-width:1;stroke-opacity:1"
                 id="path100" /><path
                 d="m 121.55589,173.93265 c -0.96457,0.15235 -2.06979,5.13204 -2.24431,12.75323 -0.33463,14.60848 3.7016,22.77863 11.27012,22.81411 0.0838,4.1e-4 0.79683,-0.24671 1.58439,-0.5488 2.50333,-0.96059 1.54781,-2.74997 -2.04225,-3.82561 -9.04146,-2.70889 -10.60458,-16.5653 -1.9575,-17.35139 3.62114,-0.32916 4.97902,-0.82267 4.97902,-1.81023 0,-0.98759 -1.35788,-1.48156 -4.97902,-1.81074 -4.97904,-0.45264 -4.97936,-0.45255 -5.25757,-4.80901 -0.24627,-3.85636 -0.77414,-5.50296 -1.35288,-5.41156 z"
                 style="opacity:0.93;mix-blend-mode:color;fill:#000000;fill-opacity:1;stroke:#000000;stroke-width:1;stroke-opacity:1"
                 id="path99" /></g><path
               d="m 295.56024,84.716445 c -3.5834,0.121016 -5.05412,6.533757 -14.63056,35.478415 -14.75894,44.6089 -16.82804,44.5792 -29.57583,-0.42729 -9.95211,-35.135507 -9.95167,-35.135628 -23.16647,-30.932238 -7.26812,2.31184 -18.2207,4.9707 -24.33904,5.90755 -10.68522,1.636059 -11.04987,2.058087 -9.24969,10.685588 3.48835,16.71812 10.25167,75.20346 10.25167,88.65296 0,14.55932 1.34624,17.22249 8.71143,17.22249 3.75324,0 6.11748,-5.73995 10.40407,-25.27477 6.98061,-31.81092 10.50895,-32.92474 25.30953,-7.99101 14.50926,24.4431 13.65583,24.57934 34.8971,-5.573 15.29089,-21.70577 17.30192,-20.81051 23.88855,10.63922 9.23105,44.07587 15.48498,39.23317 21.47388,-16.63123 2.55803,-23.86209 5.59456,-50.1224 6.74886,-58.3567 2.09881,-14.97143 2.09945,-14.971366 -11.88135,-16.844874 -7.68943,-1.030849 -17.77192,-3.085657 -22.4046,-4.566055 -2.55586,-0.816731 -4.29858,-1.704931 -5.68895,-1.9344 -0.26056,-0.04304 -0.5097,-0.06272 -0.7486,-0.05464 z"
               style="fill:#2e8b57;fill-opacity:0.997934;stroke:#303333;stroke-width:10.9318;stroke-opacity:0"
               id="path12" /><path
               d="m 292.91039,76.135843 c -5.3701,0.278985 -8.03688,8.407439 -16.70079,35.382357 -5.62036,17.49889 -10.89703,29.86365 -11.72565,27.47746 -2.54176,-7.31654 -12.81247,-44.354404 -14.63723,-52.785351 -2.10282,-9.71575 -4.16904,-9.762843 -37.76555,-0.847959 -21.40065,5.678756 -25.92302,7.847623 -25.41556,12.192701 0.33949,2.906859 2.54708,18.301699 4.90391,34.209789 2.35684,15.90809 5.1055,39.98733 6.10796,53.5091 1.00255,13.52189 2.36501,26.29141 3.02746,28.37676 4.87067,15.31929 22.98083,1.84766 28.72952,-21.37118 5.78468,-23.36433 5.78564,-23.36358 16.54016,-6.50708 14.61331,22.90489 20.43286,22.77358 37.98749,-0.84961 14.71805,-19.80583 12.58585,-21.21791 20.18042,13.36693 9.69802,44.16352 26.19126,27.43083 32.36315,-32.83352 2.50109,-24.42136 5.8174,-51.10063 7.36994,-59.28746 3.40678,-17.963604 -0.25319,-22.128049 -19.44672,-22.128049 -6.80057,0 -16.97734,-2.198873 -22.61498,-4.88735 -3.27234,-1.560424 -5.73932,-2.71567 -7.79057,-2.971163 -0.38462,-0.04791 -0.75495,-0.06496 -1.11296,-0.04638 z m 2.64985,8.580602 c 0.23877,-0.008 0.48792,0.01154 0.7486,0.05464 1.39037,0.229469 3.13309,1.117669 5.68895,1.934401 4.63268,1.480397 14.71517,3.535205 22.4046,4.566054 13.9808,1.873508 13.98016,1.873444 11.88135,16.84488 -1.1543,8.23429 -4.19083,34.49461 -6.74886,58.3567 -5.9889,55.8644 -12.24283,60.70709 -21.47388,16.63123 -6.58663,-31.44973 -8.59766,-32.345 -23.88855,-10.63922 -21.24127,30.15233 -20.38784,30.0161 -34.8971,5.573 -14.80058,-24.93373 -18.32892,-23.81992 -25.30953,7.99101 -4.28659,19.53482 -6.65083,25.27476 -10.40407,25.27476 -7.36519,0 -8.71143,-2.66316 -8.71143,-17.22248 0,-13.4495 -6.76332,-71.93484 -10.25167,-88.65296 -1.80018,-8.627507 -1.43553,-9.049535 9.24969,-10.685594 6.11834,-0.93685 17.07092,-3.59571 24.33904,-5.907549 13.2148,-4.203391 13.21436,-4.203269 23.16647,30.932233 12.74779,45.0065 14.81689,45.03619 29.57583,0.42729 9.57644,-28.944654 11.04716,-35.357401 14.63056,-35.478411 z"
               style="fill:#030000;stroke:#303333;stroke-width:10.9318;stroke-opacity:0"
               id="path11" /><path
               d="m 280.30694,48.554038 c -5.84797,-0.02372 -11.77254,-0.01666 -17.69115,0.02147 -47.34891,0.3052 -94.2951,2.578257 -98.25873,6.541859 -7.91599,7.916083 -9.06516,170.465753 -1.28355,181.575533 5.99466,8.5585 193.67127,10.30724 202.09545,1.88306 8.40416,-8.40415 6.66778,-178.752812 -1.88306,-184.742121 -4.87475,-3.414395 -42.04307,-5.112926 -82.97896,-5.279862 z m 12.60345,27.581805 c 0.35801,-0.01859 0.72834,-0.0015 1.11296,0.04638 2.05125,0.255493 4.51823,1.410739 7.79057,2.971163 5.63764,2.688477 15.81441,4.88735 22.61498,4.88735 19.19353,0 22.8535,4.164445 19.44672,22.128054 -1.55254,8.18683 -4.86885,34.86609 -7.36994,59.28745 -6.17189,60.26435 -22.66513,76.99704 -32.36315,32.83352 -7.59457,-34.58484 -5.46237,-33.17276 -20.18042,-13.36693 -17.55463,23.62319 -23.37418,23.7545 -37.98749,0.84961 -10.75452,-16.8565 -10.75548,-16.85725 -16.54016,6.50708 -5.74869,23.21884 -23.85885,36.69047 -28.72952,21.37119 -0.66245,-2.08536 -2.02491,-14.85488 -3.02746,-28.37676 -1.00246,-13.52177 -3.75112,-37.60101 -6.10796,-53.5091 -2.35683,-15.90809 -4.56442,-31.30293 -4.90391,-34.209794 -0.50746,-4.345078 4.01491,-6.513945 25.41556,-12.192701 33.59651,-8.914884 35.66273,-8.867791 37.76555,0.847959 1.82476,8.430947 12.09547,45.468816 14.63723,52.785356 0.82862,2.38619 6.10529,-9.97857 11.72565,-27.47746 8.66391,-26.974923 11.33069,-35.103383 16.70079,-35.382362 z"
               style="fill:#c84b82;fill-opacity:0.99532;stroke:#003317;stroke-width:10.9318;stroke-opacity:0"
               id="path10"
               sodipodi:nodetypes="sscssssssscsssscsscssscscss" /><path
               d="m 264.84331,42.509031 c -50.12389,0.120183 -100.32873,2.59834 -105.36203,7.326882 -6.69425,6.288837 -6.69422,6.289026 -6.69422,95.638677 0,92.97606 0.68508,98.65846 12.48089,103.41107 8.26679,3.33077 65.22534,4.03745 116.69518,2.94465 43.00146,-0.91298 82.17165,-3.08201 85.9153,-6.02678 10.58081,-8.32284 12.24238,-186.065298 1.83672,-196.471091 -4.70518,-4.705275 -54.74799,-6.943591 -104.87184,-6.823408 z m 15.46363,6.045007 c 40.93589,0.166942 78.10421,1.865467 82.97896,5.279862 8.55084,5.989309 10.28722,176.33796 1.88306,184.74212 -8.42418,8.42418 -196.10079,6.67544 -202.09545,-1.88306 -7.78161,-11.10978 -6.63244,-173.659449 1.28355,-181.575532 3.96363,-3.963602 50.90982,-6.236659 98.25873,-6.541859 5.91861,-0.03814 11.84318,-0.04538 17.69115,-0.02147 z"
               style="fill:#000000;stroke:#ffab0e;stroke-width:10.9318;stroke-opacity:0;fill-opacity:1"
               id="path9" /></g><text
             xml:space="preserve"
             transform="matrix(0.17905539,0,0,0.17905539,91.507526,11.324522)"
             id="text1"
             style="font-size:29.3333px;text-align:start;writing-mode:lr-tb;direction:ltr;white-space:pre;shape-inside:url(#rect1);fill:#9f9f9f" /><text
             xml:space="preserve"
             transform="matrix(0.17905539,0,0,0.17905539,91.507526,11.324522)"
             id="text2"
             style="fill:#9f9f9f;text-orientation:auto;text-align:start;writing-mode:lr-tb;direction:ltr;font-size:29.33333333px;white-space:pre;shape-inside:url(#rect2)" /><text
             xml:space="preserve"
             transform="matrix(0.17905539,0,0,0.17905539,91.507526,11.324522)"
             id="text3"
             style="font-size:29.3333px;text-align:start;writing-mode:lr-tb;direction:ltr;white-space:pre;shape-inside:url(#rect3);fill:#9f9f9f" /><text
             xml:space="preserve"
             transform="matrix(0.17905539,0,0,0.17905539,91.507526,11.324522)"
             id="text5"
             style="fill:#9f9f9f;text-orientation:auto;text-align:start;writing-mode:lr-tb;direction:ltr;font-size:85.33333333px;-inkscape-font-specification:'Arial Nova';font-family:'Arial Nova';font-weight:normal;font-style:normal;font-stretch:normal;font-variant:normal;white-space:pre;shape-inside:url(#rect5)" /><circle
             style="fill:#000000;fill-opacity:1;stroke-width:0.0981643"
             id="path16"
             cx="172.22009"
             cy="63.502338"
             r="7.4203076" /><circle
             style="fill:#000000;fill-opacity:1;stroke-width:0.0981643"
             id="path16-8"
             cx="353.58752"
             cy="228.56821"
             r="7.4203076" /><circle
             style="fill:#000000;fill-opacity:1;stroke-width:0.0981643"
             id="path16-1"
             cx="352.43216"
             cy="67.999298"
             r="7.4203076" /><circle
             style="fill:#000000;fill-opacity:1;stroke-width:0.0981643"
             id="path16-2"
             cx="175.14722"
             cy="221.73364"
             r="7.4203076" /></g></g></g></g></svg>
